<?xml version="1.0" encoding="iso-8859-1"?>
<!-- Generator: Adobe Illustrator 19.0.0, SVG Export Plug-In . SVG Version: 6.00 Build 0)  -->
<svg version="1.1" id="Layer_1" xmlns="http://www.w3.org/2000/svg" xmlns:xlink="http://www.w3.org/1999/xlink" x="0px" y="0px"
	 viewBox="0 0 512 512" style="enable-background:new 0 0 512 512;" xml:space="preserve">
<g>
	<g>
		<path style="fill:#ECF0F1;" d="M256,194.207c-4.882,0-8.828-3.955-8.828-8.828V88.276c0-4.873,3.946-8.828,8.828-8.828
			s8.828,3.955,8.828,8.828v97.103C264.828,190.252,260.882,194.207,256,194.207"/>
		<path style="fill:#ECF0F1;" d="M256,450.207c-4.882,0-8.828-3.955-8.828-8.828V273.655c0-4.873,3.946-8.828,8.828-8.828
			s8.828,3.955,8.828,8.828v167.724C264.828,446.252,260.882,450.207,256,450.207"/>
		<path style="fill:#ECF0F1;" d="M441.379,450.207c-4.882,0-8.828-3.955-8.828-8.828v-8.828c0-29.21-23.755-52.966-52.966-52.966
			H132.414c-29.21,0-52.966,23.755-52.966,52.966v8.828c0,4.873-3.946,8.828-8.828,8.828s-8.828-3.955-8.828-8.828v-8.828
			c0-38.938,31.682-70.621,70.621-70.621h247.172c38.938,0,70.621,31.682,70.621,70.621v8.828
			C450.207,446.252,446.261,450.207,441.379,450.207"/>
	</g>
	<polygon style="fill:#13A085;" points="70.621,273.655 441.379,273.655 441.379,185.379 70.621,185.379 	"/>
	<polygon style="fill:#C03A2B;" points="17.655,88.276 494.345,88.276 494.345,0 17.655,0 	"/>
	<g>
		<polygon style="fill:#F0C419;" points="17.655,512 123.586,512 123.586,441.379 17.655,441.379 		"/>
		<polygon style="fill:#F0C419;" points="203.034,512 308.966,512 308.966,441.379 203.034,441.379 		"/>
		<polygon style="fill:#F0C419;" points="388.414,512 494.345,512 494.345,441.379 388.414,441.379 		"/>
	</g>
</g>
<g>
</g>
<g>
</g>
<g>
</g>
<g>
</g>
<g>
</g>
<g>
</g>
<g>
</g>
<g>
</g>
<g>
</g>
<g>
</g>
<g>
</g>
<g>
</g>
<g>
</g>
<g>
</g>
<g>
</g>
</svg>
