<?xml version="1.0" encoding="iso-8859-1"?>
<!-- Generator: Adobe Illustrator 19.0.0, SVG Export Plug-In . SVG Version: 6.00 Build 0)  -->
<svg version="1.1" id="Layer_1" xmlns="http://www.w3.org/2000/svg" xmlns:xlink="http://www.w3.org/1999/xlink" x="0px" y="0px"
	 viewBox="0 0 512 512" style="enable-background:new 0 0 512 512;" xml:space="preserve">
<path style="fill:#808080;" d="M156.97,106.43H29.223c-1.728,0-3.409,0.56-4.791,1.597L3.142,123.996
	c-4.189,3.142-4.189,9.633,0,12.775l21.291,15.968c1.382,1.037,3.063,1.597,4.791,1.597H156.97c4.409,0,7.984-3.575,7.984-7.984
	v-31.937C164.955,110.005,161.38,106.43,156.97,106.43z"/>
<g>
	<path style="fill:#666666;" d="M103.739,163.919c-1.024,0-2.063-0.198-3.068-0.616c-4.07-1.696-5.995-6.37-4.299-10.441
		l21.291-51.099c1.696-4.071,6.369-5.996,10.441-4.299c4.07,1.696,5.995,6.37,4.299,10.441l-21.291,51.099
		C109.835,162.069,106.866,163.919,103.739,163.919z"/>
	<path style="fill:#666666;" d="M73.932,163.919c-1.024,0-2.063-0.198-3.068-0.616c-4.07-1.696-5.995-6.37-4.299-10.441
		l21.291-51.099c1.696-4.071,6.37-5.996,10.441-4.299c4.07,1.696,5.995,6.37,4.299,10.441l-21.291,51.099
		C80.027,162.069,77.058,163.919,73.932,163.919z"/>
	<path style="fill:#666666;" d="M44.124,163.919c-1.024,0-2.063-0.198-3.068-0.616c-4.07-1.696-5.995-6.37-4.299-10.441
		l21.291-51.099c1.696-4.071,6.369-5.996,10.441-4.299c4.07,1.696,5.995,6.37,4.299,10.441l-21.291,51.099
		C50.22,162.069,47.251,163.919,44.124,163.919z"/>
</g>
<path style="fill:#EB6836;" d="M342.203,200.111h-42.582c-4.409,0-7.984,3.575-7.984,7.984v80.906c0,4.409,3.575,7.984,7.984,7.984
	h42.582c4.409,0,7.984-3.575,7.984-7.984v-80.906C350.188,203.686,346.613,200.111,342.203,200.111z"/>
<path style="fill:#C74B38;" d="M350.188,208.096c0-4.409-3.575-7.984-7.984-7.984h-42.582c-4.409,0-7.984,3.575-7.984,7.984v24.485
	h58.551V208.096z"/>
<path style="fill:#62C9CC;" d="M502.993,421.197L461.95,160.015c-0.61-3.883-3.956-6.745-7.887-6.745H324.187
	c-2.333,0-4.551,1.021-6.068,2.794c-1.517,1.775-2.181,4.123-1.819,6.429l42.601,271.097c3.071,19.541,19.656,33.724,39.437,33.724
	h65.219c11.687,0,22.745-5.094,30.34-13.975C501.491,444.457,504.807,432.742,502.993,421.197z"/>
<path style="fill:#50A9A9;" d="M461.95,160.016c-0.61-3.884-3.956-6.745-7.887-6.745H324.187c-2.333,0-4.551,1.021-6.068,2.794
	c-1.517,1.775-2.181,4.123-1.819,6.429l11.014,70.086h146.04L461.95,160.016z"/>
<path style="fill:#62C9CC;" d="M456.111,44.686H240.006c-4.409,0-7.984,3.575-7.984,7.984v155.425c0,4.409,3.575,7.984,7.984,7.984
	h216.105c30.818,0,55.889-25.071,55.889-55.889v-59.615C512,69.757,486.929,44.686,456.111,44.686z"/>
<rect x="232.021" y="100.58" style="fill:#D4F2E8;" width="279.979" height="59.615"/>
<path style="fill:#999999;" d="M263.426,44.686h-51.099c-39.623,0-71.858,32.235-71.858,71.858v27.678
	c0,39.623,32.235,71.858,71.858,71.858h51.099c4.409,0,7.984-3.575,7.984-7.984V52.67C271.41,48.261,267.835,44.686,263.426,44.686z
	"/>
<path style="fill:#B2B2B2;" d="M271.41,100.575h-129.13c-1.171,5.14-1.811,10.48-1.811,15.968v27.678
	c0,5.489,0.64,10.829,1.811,15.968h129.13L271.41,100.575L271.41,100.575z"/>
<g>
	<path style="fill:#666666;" d="M259.168,138.367H205.94c-4.409,0-7.984-3.575-7.984-7.984c0-4.409,3.575-7.984,7.984-7.984h53.228
		c4.409,0,7.984,3.575,7.984,7.984C267.152,134.792,263.577,138.367,259.168,138.367z"/>
	<path style="fill:#666666;" d="M259.168,100.043h-42.582c-4.409,0-7.984-3.575-7.984-7.984s3.575-7.984,7.984-7.984h42.582
		c4.409,0,7.984,3.575,7.984,7.984S263.577,100.043,259.168,100.043z"/>
	<path style="fill:#666666;" d="M259.168,176.691h-42.582c-4.409,0-7.984-3.575-7.984-7.984s3.575-7.984,7.984-7.984h42.582
		c4.409,0,7.984,3.575,7.984,7.984S263.577,176.691,259.168,176.691z"/>
</g>
<rect x="253.312" y="44.686" style="fill:#F7D04A;" width="54.292" height="171.394"/>
<rect x="253.312" y="100.58" style="fill:#FEE7BE;" width="54.292" height="59.615"/>
<g>
	<path style="fill:#EB6836;" d="M280.459,104.301c-4.409,0-7.984-3.575-7.984-7.984v-8.516c0-4.409,3.575-7.984,7.984-7.984
		c4.409,0,7.984,3.575,7.984,7.984v8.516C288.443,100.726,284.868,104.301,280.459,104.301z"/>
	<path style="fill:#EB6836;" d="M280.459,142.625c-4.409,0-7.984-3.575-7.984-7.984v-8.516c0-4.409,3.575-7.984,7.984-7.984
		c4.409,0,7.984,3.575,7.984,7.984v8.516C288.443,139.051,284.868,142.625,280.459,142.625z"/>
	<path style="fill:#EB6836;" d="M280.459,180.949c-4.409,0-7.984-3.575-7.984-7.984v-8.516c0-4.409,3.575-7.984,7.984-7.984
		c4.409,0,7.984,3.575,7.984,7.984v8.516C288.443,177.375,284.868,180.949,280.459,180.949z"/>
</g>
<g>
	<path style="fill:#F7D04A;" d="M401.77,256.11c-1.516,1.76-2.192,4.092-1.849,6.389l4.127,27.678
		c0.583,3.911,3.942,6.807,7.897,6.807h71.53l-6.859-43.647h-68.798C405.494,253.339,403.287,254.351,401.77,256.11z"/>
	<path style="fill:#F7D04A;" d="M410.341,313.596c-1.516,1.76-2.192,4.092-1.849,6.391l4.127,27.678
		c0.583,3.911,3.942,6.807,7.897,6.807h71.991l-6.859-43.647h-69.259C414.066,310.825,411.858,311.837,410.341,313.596z"/>
	<path style="fill:#F7D04A;" d="M424.962,368.312c-2.323,0-4.531,1.012-6.048,2.772c-1.516,1.76-2.192,4.092-1.849,6.391
		l4.127,27.678c0.583,3.911,3.942,6.807,7.897,6.807h72.452l-6.859-43.647h-69.72V368.312z"/>
</g>
<g>
</g>
<g>
</g>
<g>
</g>
<g>
</g>
<g>
</g>
<g>
</g>
<g>
</g>
<g>
</g>
<g>
</g>
<g>
</g>
<g>
</g>
<g>
</g>
<g>
</g>
<g>
</g>
<g>
</g>
</svg>
