<?xml version="1.0" encoding="UTF-8" standalone="no"?>
<svg
   xmlns:dc="http://purl.org/dc/elements/1.1/"
   xmlns:cc="http://creativecommons.org/ns#"
   xmlns:rdf="http://www.w3.org/1999/02/22-rdf-syntax-ns#"
   xmlns:svg="http://www.w3.org/2000/svg"
   xmlns="http://www.w3.org/2000/svg"
   xmlns:sodipodi="http://sodipodi.sourceforge.net/DTD/sodipodi-0.dtd"
   xmlns:inkscape="http://www.inkscape.org/namespaces/inkscape"
   version="1.1"
   id="Layer_1"
   x="0px"
   y="0px"
   viewBox="0 0 1227.7523 881.60938"
   xml:space="preserve"
   sodipodi:docname="logo.svg"
   width="1227.7523"
   height="881.60938"
   inkscape:version="1.0.2 (e86c870879, 2021-01-15)"><metadata
   id="metadata107"><rdf:RDF><cc:Work
       rdf:about=""><dc:format>image/svg+xml</dc:format><dc:type
         rdf:resource="http://purl.org/dc/dcmitype/StillImage" /><dc:title></dc:title></cc:Work></rdf:RDF></metadata><defs
   id="defs105" /><sodipodi:namedview
   pagecolor="#ffffff"
   bordercolor="#666666"
   borderopacity="1"
   objecttolerance="10"
   gridtolerance="10"
   guidetolerance="10"
   inkscape:pageopacity="0"
   inkscape:pageshadow="2"
   inkscape:window-width="1920"
   inkscape:window-height="1017"
   id="namedview103"
   showgrid="false"
   fit-margin-top="0"
   fit-margin-left="0"
   fit-margin-right="0"
   fit-margin-bottom="0"
   inkscape:zoom="0.30452548"
   inkscape:cx="465.43449"
   inkscape:cy="-13.736236"
   inkscape:window-x="0"
   inkscape:window-y="26"
   inkscape:window-maximized="1"
   inkscape:current-layer="Layer_1" />
<path
   style="fill:#72ccc5"
   d="m 940.32377,685.53595 c 94.45403,0 171.02303,-76.569 171.02303,-171.023 H 769.30077 c 0,94.454 76.569,171.023 171.023,171.023 z"
   id="path2" />
<path
   style="fill:#11bba3"
   d="m 820.60777,514.51295 h -51.307 c 0,94.454 76.569,171.023 171.023,171.023 8.719,0 17.285,-0.657 25.653,-1.915 -82.283,-12.378 -145.369,-83.374 -145.369,-169.108 z"
   id="path4" />
<g
   id="g10"
   transform="translate(684.32377,181.55295)">
	<polygon
   style="fill:#66bf00"
   points="341.511,435.574 367.165,427.023 384.267,392.818 384.267,367.165 418.472,332.96 281.653,332.96 290.205,367.165 332.96,375.716 332.96,409.921 "
   id="polygon6" />
	<path
   style="fill:#66bf00"
   d="M 187.591,332.96 H 84.977 c 0,80.038 54.985,147.226 129.239,165.872 l -0.972,-3.4 -8.551,-34.205 25.653,-17.102 8.551,-34.205 v -42.756 l -25.653,-8.551 z"
   id="path8" />
</g>
<path
   style="fill:#58ab23"
   d="m 891.63677,653.26095 c -43.023,-31.061 -71.029,-81.63 -71.029,-138.748 h -51.307 c 0,80.038 54.985,147.226 129.239,165.872 l -0.972,-3.4 z"
   id="path12" />
<path
   style="fill:#66bf00"
   d="m 940.32377,260.35095 c -20.442,11.829 -34.205,33.918 -34.205,59.235 0,25.317 13.763,47.404 34.205,59.235 20.442,-11.829 34.205,-33.918 34.205,-59.235 0,-25.318 -13.763,-47.406 -34.205,-59.235 z"
   id="path14" />
<path
   style="fill:#58ab23"
   d="m 940.32377,350.79395 c -16.564,-9.586 -28.739,-25.907 -32.764,-45.222 -0.943,4.522 -1.441,9.21 -1.441,14.012 0,25.317 13.763,47.404 34.205,59.235 20.442,-11.829 34.205,-33.918 34.205,-59.235 0,-4.804 -0.498,-9.49 -1.441,-14.012 -4.025,19.316 -16.2,35.637 -32.764,45.222 z"
   id="path16" />
<path
   style="fill:#66bf00"
   d="m 1066.2698,362.91395 c -22.82,-6.089 -48.17,-0.203 -66.072,17.699 -17.90203,17.902 -23.78803,43.252 -17.69903,66.072 22.82003,6.09 48.17003,0.203 66.07203,-17.699 17.902,-17.902 23.788,-43.253 17.699,-66.072 z"
   id="path18" />
<path
   style="fill:#58ab23"
   d="m 1066.2698,362.91395 c -4.07,-1.086 -8.223,-1.784 -12.398,-2.108 2.473,20.176 -4.014,41.239 -19.501,56.726 -14.708,14.708 -34.44403,21.299 -53.67303,19.807 0.386,3.145 0.981,6.268 1.802,9.345 22.82003,6.089 48.17003,0.203 66.07203,-17.699 17.901,-17.901 23.787,-43.252 17.698,-66.071 z"
   id="path20" />
<path
   style="fill:#66bf00"
   d="m 814.37777,362.91395 c 22.819,-6.089 48.17,-0.203 66.072,17.699 17.902,17.902 23.788,43.252 17.699,66.072 -22.82,6.09 -48.17,0.203 -66.072,-17.699 -17.902,-17.902 -23.788,-43.253 -17.699,-66.072 z"
   id="path22" />
<path
   style="fill:#58ab23"
   d="m 846.27677,417.53295 c -15.488,-15.488 -21.974,-36.551 -19.501,-56.726 -4.175,0.324 -8.328,1.022 -12.398,2.108 -6.089,22.82 -0.203,48.17 17.699,66.072 17.902,17.902 43.252,23.788 66.072,17.699 0.821,-3.077 1.417,-6.201 1.802,-9.345 -19.23,1.49 -38.966,-5.1 -53.674,-19.808 z"
   id="path24" />
<circle
   style="fill:#fc9c47"
   cx="1119.8978"
   cy="257.97894"
   r="34.205002"
   id="circle26" />
<circle
   style="fill:#ffc552"
   cx="1119.8978"
   cy="257.97894"
   r="17.101999"
   id="circle28" />
<g
   id="g38"
   transform="translate(684.32377,181.55295)">
	<path
   style="fill:#e8e6d9"
   d="m 196.142,8.017 c 23.613,0 42.756,19.143 42.756,42.756 H 153.387 C 153.386,27.16 172.529,8.017 196.142,8.017 Z"
   id="path30" />
	<path
   style="fill:#e8e6d9"
   d="m 119.182,16.568 c 18.891,0 34.205,15.314 34.205,34.205 h -68.41 c 0,-18.891 15.314,-34.205 34.205,-34.205 z"
   id="path32" />
	<path
   style="fill:#e8e6d9"
   d="m 119.182,93.528 c 23.613,0 42.756,19.143 42.756,42.756 H 76.426 c 0,-23.613 19.143,-42.756 42.756,-42.756 z"
   id="path34" />
	<path
   style="fill:#e8e6d9"
   d="m 42.221,102.079 c 18.891,0 34.205,15.314 34.205,34.205 H 8.017 c 0,-18.891 15.314,-34.205 34.204,-34.205 z"
   id="path36" />
</g>
<path
   d="M 1111.3468,506.49695 H 948.34077 v -14.317 l 36.681,-36.681 c 5,1.008 10.047,1.506 15.06803,1.506 20.046,0 39.671,-7.872 54.149,-22.351 19.218,-19.219 26.796,-47.499 19.776,-73.807 -0.74,-2.773 -2.906,-4.939 -5.679,-5.679 -26.308,-7.02 -54.588,0.558 -73.80703,19.776 -18.105,18.105 -25.874,44.253 -20.844,69.217 l -25.343,25.346 v -86.238 c 21.208,-14.095 34.205,-38.078 34.205,-63.683 0,-27.179 -14.64,-52.535 -38.205,-66.173 -2.484,-1.438 -5.546,-1.438 -8.032,0 -23.566,13.637 -38.205,38.993 -38.205,66.172 0,25.604 12.997,49.587 34.205,63.683 v 86.238 l -25.345,-25.345 c 5.029,-24.964 -2.74,-51.112 -20.844,-69.217 -19.219,-19.218 -47.498,-26.796 -73.807,-19.776 -2.773,0.74 -4.939,2.906 -5.679,5.679 -7.019,26.307 0.558,54.588 19.776,73.807 14.479,14.479 34.101,22.351 54.149,22.351 5.021,0 10.068,-0.498 15.068,-1.506 l 36.682,36.681 v 14.317 h -163.009 c -4.427,0 -8.017,3.589 -8.017,8.017 0,28.339 6.43,55.447 19.113,80.572 1.996,3.953 6.817,5.54 10.769,3.544 3.953,-1.995 5.54,-6.816 3.544,-10.769 -10.34,-20.484 -16.114,-42.428 -17.203,-65.331 h 91.087 l 23.305,23.305 c 0.88,0.88 1.953,1.543 3.134,1.937 l 20.171,6.724 v 35.991 l -7.56,30.241 -23.074,15.382 c -2.819,1.879 -4.153,5.327 -3.331,8.614 l 5.975,23.903 c -27.143,-9.352 -51.641,-25.815 -70.774,-48.164 -2.879,-3.364 -7.941,-3.756 -11.304,-0.877 -3.363,2.88 -3.756,7.94 -0.876,11.304 34.095,39.823 83.687,62.663 136.064,62.663 98.72303,0 179.04003,-80.317 179.04003,-179.04 0,-4.427 -3.59,-8.016 -8.017,-8.016 z m -68.444,-83.18 c -11.571,11.571 -27.306,17.786 -43.33903,17.641 l 60.97803,-60.978 c 0.145,16.034 -6.07,31.767 -17.639,43.337 z m -37.037,-37.036 c 11.571,-11.571 27.305,-17.787 43.339,-17.641 l -60.97903,60.979 c -0.144,-16.034 6.071,-31.767 17.64003,-43.338 z m -39.35403,-66.696 c 0,16.364 -6.731,31.883 -18.171,43.118 v -86.237 c 11.44,11.237 18.171,26.756 18.171,43.119 z m -52.376,0 c 0,-16.363 6.731,-31.882 18.171,-43.118 v 86.236 c -11.44,-11.235 -18.171,-26.755 -18.171,-43.118 z m -39.354,66.696 c 11.571,11.571 17.784,27.304 17.64,43.338 l -60.978,-60.978 c 16.033,-0.143 31.767,6.071 43.338,17.64 z m -37.036,37.036 c -11.571,-11.571 -17.784,-27.304 -17.64,-43.338 l 60.978,60.978 c -16.034,0.145 -31.768,-6.069 -43.338,-17.64 z m 181.11103,126.091 -37.78103,-7.556 -4.83,-19.322 h 107.19703 l -20.52,20.52 c -1.504,1.503 -2.348,3.542 -2.348,5.668 v 23.76 l -14.771,29.542 -14.898,4.966 -5.604,-16.814 v -32.904 c -10e-4,-3.82 -2.698,-7.11 -6.445,-7.86 z m -78.53303,128.112 c -11.997,0 -23.833,-1.319 -35.326,-3.867 l -6.833,-27.336 20.952,-13.968 c 1.66,-1.106 2.848,-2.791 3.331,-4.726 l 8.551,-34.205 c 0.159,-0.636 0.239,-1.289 0.239,-1.944 v -42.756 c 0,-3.45 -2.208,-6.514 -5.481,-7.605 l -23.858,-7.953 -10.631,-10.63 h 68.45 l 7.033,28.132 c 0.751,3.006 3.167,5.309 6.205,5.917 l 36.31103,7.261 v 27.633 c 0,0.862 0.139,1.718 0.412,2.535 l 8.551,25.653 c 1.12,3.36 4.248,5.484 7.604,5.483 0.84,0 1.695,-0.134 2.536,-0.414 l 25.653,-8.551 c 2.017,-0.672 3.684,-2.119 4.635,-4.02 l 17.102,-34.205 c 0.557,-1.114 0.847,-2.34 0.847,-3.585 v -22.333 l 26.334,-26.334 c -5.77,84.684 -76.497,151.818 -162.61703,151.818 z"
   id="path40" />
<path
   d="m 1119.8978,215.75795 c -23.281,0 -42.221,18.941 -42.221,42.221 0,23.28 18.941,42.221 42.221,42.221 23.28,0 42.221,-18.941 42.221,-42.221 0,-23.28 -18.94,-42.221 -42.221,-42.221 z m 0,68.409 c -14.44,0 -26.188,-11.748 -26.188,-26.188 0,-14.44 11.748,-26.188 26.188,-26.188 14.44,0 26.188,11.748 26.188,26.188 0,14.44 -11.748,26.188 -26.188,26.188 z"
   id="path42" />
<path
   d="m 1119.8978,206.13795 c 4.427,0 8.017,-3.589 8.017,-8.017 v -8.551 c 0,-4.427 -3.589,-8.017 -8.017,-8.017 -4.427,0 -8.017,3.589 -8.017,8.017 v 8.551 c 0,4.427 3.59,8.017 8.017,8.017 z"
   id="path44" />
<path
   d="m 1145.8188,213.08295 c 3.787,2.187 8.768,0.847 10.951,-2.934 l 4.276,-7.405 c 2.214,-3.834 0.9,-8.737 -2.934,-10.951 -3.834,-2.215 -8.737,-0.9 -10.951,2.934 l -4.276,7.405 c -2.214,3.835 -0.9,8.738 2.934,10.951 z"
   id="path46" />
<path
   d="m 1171.7438,236.06795 c 1.36,0 2.739,-0.346 4.001,-1.075 l 7.405,-4.276 c 3.834,-2.214 5.148,-7.117 2.934,-10.951 -2.214,-3.834 -7.117,-5.148 -10.951,-2.934 l -7.405,4.276 c -2.982,1.722 -4.557,5.27 -3.829,8.636 0.791,3.648 4.112,6.324 7.845,6.324 z"
   id="path48" />
<path
   d="m 1188.3068,249.96195 h -8.551 c -4.427,0 -8.017,3.589 -8.017,8.017 0,4.428 3.589,8.017 8.017,8.017 h 8.551 c 4.427,0 8.017,-3.589 8.017,-8.017 0,-4.428 -3.589,-8.017 -8.017,-8.017 z"
   id="path50" />
<path
   d="m 1183.1508,285.24095 -7.405,-4.276 c -3.834,-2.215 -8.737,-0.9 -10.951,2.934 -2.214,3.834 -0.9,8.737 2.934,10.951 l 7.405,4.276 c 4.09,2.362 9.464,0.581 11.355,-3.733 1.618,-3.691 0.15,-8.139 -3.338,-10.152 z"
   id="path52" />
<path
   d="m 1156.7698,305.80995 c -2.214,-3.835 -7.118,-5.149 -10.951,-2.934 -3.834,2.214 -5.148,7.117 -2.934,10.951 l 4.276,7.405 c 2.356,4.081 7.897,5.242 11.7,2.446 3.247,-2.388 4.199,-6.975 2.186,-10.462 z"
   id="path54" />
<path
   d="m 1085.6858,325.24095 c 2.771,0 5.465,-1.439 6.95,-4.009 l 4.276,-7.405 c 2.214,-3.834 0.9,-8.737 -2.934,-10.951 -3.834,-2.215 -8.737,-0.9 -10.951,2.934 l -4.276,7.405 c -3.022,5.233 0.855,12.026 6.935,12.026 z"
   id="path56" />
<path
   d="m 1064.0508,280.96495 -7.405,4.276 c -3.488,2.013 -4.956,6.461 -3.338,10.153 1.891,4.314 7.265,6.095 11.355,3.733 l 7.405,-4.276 c 3.834,-2.214 5.148,-7.117 2.934,-10.951 -2.214,-3.836 -7.116,-5.148 -10.951,-2.935 z"
   id="path58" />
<path
   d="m 1051.4888,265.99595 h 8.551 c 4.427,0 8.017,-3.589 8.017,-8.017 0,-4.428 -3.589,-8.017 -8.017,-8.017 h -8.551 c -4.369,0 -8.017,3.648 -8.017,8.017 0,4.369 3.648,8.017 8.017,8.017 z"
   id="path60" />
<path
   d="m 1056.6448,230.71695 7.405,4.276 c 4.09,2.362 9.464,0.581 11.355,-3.733 1.618,-3.691 0.15,-8.14 -3.338,-10.153 l -7.405,-4.276 c -3.835,-2.215 -8.737,-0.9 -10.951,2.934 -2.214,3.834 -0.9,8.738 2.934,10.952 z"
   id="path62" />
<path
   d="m 1083.0268,210.14795 c 2.356,4.081 7.897,5.242 11.7,2.446 3.247,-2.388 4.199,-6.975 2.186,-10.462 l -4.276,-7.405 c -2.214,-3.834 -7.118,-5.148 -10.951,-2.934 -3.834,2.214 -5.148,7.117 -2.934,10.951 z"
   id="path64" />
<path
   d="m 1119.8978,309.81995 c -4.427,0 -8.017,3.589 -8.017,8.017 v 8.551 c 0,4.427 3.589,8.017 8.017,8.017 4.427,0 8.017,-3.589 8.017,-8.017 v -8.551 c 0,-4.427 -3.59,-8.017 -8.017,-8.017 z"
   id="path66" />
<path
   d="m 769.30077,240.34195 h 153.921 c 4.427,0 8.017,-3.589 8.017,-8.017 -0.001,-27.995 -22.778,-50.772 -50.773,-50.772 -18.542,0 -34.786,9.996 -43.648,24.877 -7.732,-9.925 -19.785,-16.326 -33.312,-16.326 -23.281,0 -42.221,18.941 -42.221,42.221 -10e-4,4.428 3.589,8.017 8.016,8.017 z m 111.165,-42.756 c 16.397,0 30.177,11.419 33.805,26.722 h -67.611 c 3.629,-15.303 17.409,-26.722 33.806,-26.722 z m -76.96,8.552 c 11.646,0 21.539,7.639 24.933,18.171 h -49.866 c 3.393,-10.532 13.287,-18.171 24.933,-18.171 z"
   id="path68" />
<path
   d="m 854.27777,317.83695 c 0,-27.995 -22.777,-50.772 -50.772,-50.772 -18.542,0 -34.786,9.996 -43.648,24.877 -7.732,-9.925 -19.785,-16.326 -33.312,-16.326 -23.281,0 -42.222,18.94 -42.222,42.221 0,4.427 3.589,8.017 8.017,8.017 h 153.921 c 4.427,0 8.016,-3.59 8.016,-8.017 z m -152.666,-8.017 c 3.394,-10.532 13.288,-18.171 24.933,-18.171 11.645,0 21.539,7.639 24.933,18.171 z m 68.089,0 c 3.628,-15.303 17.408,-26.722 33.805,-26.722 16.397,0 30.177,11.419 33.805,26.722 z"
   id="path70" />
<g
   id="g72"
   transform="translate(684.32377,181.55295)">
</g>
<g
   id="g74"
   transform="translate(684.32377,181.55295)">
</g>
<g
   id="g76"
   transform="translate(684.32377,181.55295)">
</g>
<g
   id="g78"
   transform="translate(684.32377,181.55295)">
</g>
<g
   id="g80"
   transform="translate(684.32377,181.55295)">
</g>
<g
   id="g82"
   transform="translate(684.32377,181.55295)">
</g>
<g
   id="g84"
   transform="translate(684.32377,181.55295)">
</g>
<g
   id="g86"
   transform="translate(684.32377,181.55295)">
</g>
<g
   id="g88"
   transform="translate(684.32377,181.55295)">
</g>
<g
   id="g90"
   transform="translate(684.32377,181.55295)">
</g>
<g
   id="g92"
   transform="translate(684.32377,181.55295)">
</g>
<g
   id="g94"
   transform="translate(684.32377,181.55295)">
</g>
<g
   id="g96"
   transform="translate(684.32377,181.55295)">
</g>
<g
   id="g98"
   transform="translate(684.32377,181.55295)">
</g>
<g
   id="g100"
   transform="translate(684.32377,181.55295)">
</g>
<text
   xml:space="preserve"
   style="font-style:normal;font-variant:normal;font-weight:normal;font-stretch:normal;font-size:91.9732px;line-height:1.25;font-family:'Linux Biolinum O';-inkscape-font-specification:'Linux Biolinum O';letter-spacing:0px;word-spacing:0px;fill:#000000;fill-opacity:1;stroke:none;stroke-width:6.89797"
   x="-23.83938"
   y="855.56891"
   id="text934"><tspan
     sodipodi:role="line"
     id="tspan932"
     x="-23.83938"
     y="855.56891"
     style="font-style:normal;font-variant:normal;font-weight:normal;font-stretch:normal;font-size:1324.41px;font-family:'Linux Libertine O';-inkscape-font-specification:'Linux Libertine O';stroke-width:6.89797">Σ</tspan></text><text
   xml:space="preserve"
   style="font-style:normal;font-variant:normal;font-weight:normal;font-stretch:normal;font-size:40.4859px;line-height:1.25;font-family:'Linux Biolinum O';-inkscape-font-specification:'Linux Biolinum O';letter-spacing:0px;word-spacing:0px;fill:#000000;fill-opacity:1;stroke:none;stroke-width:3.03644"
   x="1079.9386"
   y="876.63251"
   id="text934-3"><tspan
     sodipodi:role="line"
     id="tspan932-6"
     x="1079.9386"
     y="876.63251"
     style="font-style:italic;font-variant:normal;font-weight:normal;font-stretch:normal;font-size:497.689px;font-family:'Linux Libertine O';-inkscape-font-specification:'Linux Libertine O';stroke-width:3.03644">i</tspan></text></svg>
